<svg width="139" height="31" viewBox="0 0 139 31" fill="none" xmlns="http://www.w3.org/2000/svg">
<g style="mix-blend-mode:hard-light">
<mask id="path-1-inside-1_122_6" fill="white">
<path d="M9.16 30.4C7.4 30.4 5.86667 30.0667 4.56 29.4C3.28 28.7333 2.28 27.7733 1.56 26.52C0.866667 25.24 0.52 23.7333 0.52 22V8.8C0.52 7.04 0.866667 5.53333 1.56 4.28C2.28 3.02667 3.28 2.06666 4.56 1.4C5.86667 0.733333 7.4 0.4 9.16 0.4C10.92 0.4 12.44 0.746666 13.72 1.44C15 2.10667 15.9867 3.06667 16.68 4.32C17.3733 5.57333 17.72 7.06667 17.72 8.8H14.12C14.12 7.14667 13.68 5.88 12.8 5C11.9467 4.09333 10.7333 3.64 9.16 3.64C7.58667 3.64 6.34667 4.08 5.44 4.96C4.56 5.84 4.12 7.10666 4.12 8.76V22C4.12 23.6533 4.56 24.9333 5.44 25.84C6.34667 26.7467 7.58667 27.2 9.16 27.2C10.7333 27.2 11.9467 26.7467 12.8 25.84C13.68 24.9333 14.12 23.6533 14.12 22V18.4H8.2V15.12H17.72V22C17.72 23.7067 17.3733 25.2 16.68 26.48C15.9867 27.7333 15 28.7067 13.72 29.4C12.44 30.0667 10.92 30.4 9.16 30.4ZM33.1444 30.4C31.3844 30.4 29.851 30.0667 28.5444 29.4C27.2644 28.7333 26.2644 27.7733 25.5444 26.52C24.851 25.24 24.5044 23.7333 24.5044 22V8.8C24.5044 7.04 24.851 5.53333 25.5444 4.28C26.2644 3.02667 27.2644 2.06666 28.5444 1.4C29.851 0.733333 31.3844 0.4 33.1444 0.4C34.9044 0.4 36.4244 0.746666 37.7044 1.44C38.9844 2.10667 39.971 3.06667 40.6644 4.32C41.3577 5.57333 41.7044 7.06667 41.7044 8.8H38.1044C38.1044 7.14667 37.6644 5.88 36.7844 5C35.931 4.09333 34.7177 3.64 33.1444 3.64C31.571 3.64 30.331 4.08 29.4244 4.96C28.5444 5.84 28.1044 7.10666 28.1044 8.76V22C28.1044 23.6533 28.5444 24.9333 29.4244 25.84C30.331 26.72 31.571 27.16 33.1444 27.16C34.7177 27.16 35.931 26.72 36.7844 25.84C37.6644 24.9333 38.1044 23.6533 38.1044 22H41.7044C41.7044 23.7067 41.3577 25.2 40.6644 26.48C39.971 27.7333 38.9844 28.7067 37.7044 29.4C36.4244 30.0667 34.9044 30.4 33.1444 30.4ZM56.9688 30.4C55.2088 30.4 53.6888 30.0667 52.4088 29.4C51.1554 28.7333 50.1821 27.7733 49.4888 26.52C48.8221 25.24 48.4888 23.7333 48.4888 22V8.8C48.4888 7.04 48.8221 5.53333 49.4888 4.28C50.1821 3.02667 51.1554 2.06666 52.4088 1.4C53.6888 0.733333 55.2088 0.4 56.9688 0.4C58.7288 0.4 60.2354 0.733333 61.4888 1.4C62.7688 2.06666 63.7421 3.02667 64.4088 4.28C65.1021 5.53333 65.4488 7.02667 65.4488 8.76V22C65.4488 23.7333 65.1021 25.24 64.4088 26.52C63.7421 27.7733 62.7688 28.7333 61.4888 29.4C60.2354 30.0667 58.7288 30.4 56.9688 30.4ZM56.9688 27.16C58.5421 27.16 59.7421 26.72 60.5688 25.84C61.4221 24.9333 61.8488 23.6533 61.8488 22V8.8C61.8488 7.14667 61.4221 5.88 60.5688 5C59.7421 4.09333 58.5421 3.64 56.9688 3.64C55.4221 3.64 54.2221 4.09333 53.3688 5C52.5154 5.88 52.0888 7.14667 52.0888 8.8V22C52.0888 23.6533 52.5154 24.9333 53.3688 25.84C54.2221 26.72 55.4221 27.16 56.9688 27.16ZM72.6331 30V0.799999H81.6731C83.4065 0.799999 84.9265 1.16 86.2331 1.88C87.5398 2.57333 88.5531 3.54666 89.2731 4.8C89.9931 6.05333 90.3531 7.52 90.3531 9.2C90.3531 11.1733 89.8331 12.8667 88.7931 14.28C87.7798 15.6933 86.3931 16.6667 84.6331 17.2L90.7531 30H86.5131L80.9131 17.6H76.2331V30H72.6331ZM76.2331 14.36H81.6731C83.1665 14.36 84.3665 13.8933 85.2731 12.96C86.1798 12 86.6331 10.7467 86.6331 9.2C86.6331 7.62666 86.1798 6.37333 85.2731 5.44C84.3665 4.50667 83.1665 4.04 81.6731 4.04H76.2331V14.36ZM96.6175 30V0.799999H106.018C107.831 0.799999 109.404 1.16 110.738 1.88C112.071 2.57333 113.098 3.56 113.818 4.84C114.564 6.12 114.938 7.64 114.938 9.4C114.938 11.1333 114.564 12.6533 113.818 13.96C113.098 15.24 112.071 16.24 110.738 16.96C109.404 17.6533 107.831 18 106.018 18H100.218V30H96.6175ZM100.218 14.76H106.018C107.591 14.76 108.844 14.28 109.778 13.32C110.738 12.3333 111.218 11.0267 111.218 9.4C111.218 7.74667 110.738 6.44 109.778 5.48C108.844 4.52 107.591 4.04 106.018 4.04H100.218V14.76ZM129.082 30.4C127.162 30.4 125.509 30.08 124.122 29.44C122.762 28.8 121.709 27.88 120.962 26.68C120.215 25.48 119.829 24.0533 119.802 22.4H123.402C123.402 23.8667 123.895 25.0267 124.882 25.88C125.895 26.7333 127.295 27.16 129.082 27.16C130.762 27.16 132.069 26.7467 133.002 25.92C133.962 25.0933 134.442 23.9467 134.442 22.48C134.442 21.3067 134.122 20.28 133.482 19.4C132.869 18.52 131.975 17.9067 130.802 17.56L126.842 16.32C124.842 15.7067 123.295 14.68 122.202 13.24C121.135 11.8 120.602 10.1067 120.602 8.16C120.602 6.58667 120.949 5.22667 121.642 4.08C122.362 2.90667 123.362 2 124.642 1.36C125.922 0.693332 127.429 0.359998 129.162 0.359998C131.722 0.359998 133.775 1.08 135.322 2.52C136.869 3.93333 137.655 5.82667 137.682 8.2H134.082C134.082 6.76 133.642 5.64 132.762 4.84C131.909 4.01333 130.695 3.6 129.122 3.6C127.575 3.6 126.362 3.97333 125.482 4.72C124.629 5.46667 124.202 6.50667 124.202 7.84C124.202 9.04 124.522 10.08 125.162 10.96C125.802 11.84 126.722 12.4667 127.922 12.84L131.922 14.12C133.869 14.7333 135.375 15.7733 136.442 17.24C137.509 18.7067 138.042 20.4267 138.042 22.4C138.042 24 137.669 25.4 136.922 26.6C136.175 27.8 135.122 28.7333 133.762 29.4C132.429 30.0667 130.869 30.4 129.082 30.4Z"/>
</mask>
<g filter="url(#filter0_i_122_6)">
<path d="M9.16 30.4C7.4 30.4 5.86667 30.0667 4.56 29.4C3.28 28.7333 2.28 27.7733 1.56 26.52C0.866667 25.24 0.52 23.7333 0.52 22V8.8C0.52 7.04 0.866667 5.53333 1.56 4.28C2.28 3.02667 3.28 2.06666 4.56 1.4C5.86667 0.733333 7.4 0.4 9.16 0.4C10.92 0.4 12.44 0.746666 13.72 1.44C15 2.10667 15.9867 3.06667 16.68 4.32C17.3733 5.57333 17.72 7.06667 17.72 8.8H14.12C14.12 7.14667 13.68 5.88 12.8 5C11.9467 4.09333 10.7333 3.64 9.16 3.64C7.58667 3.64 6.34667 4.08 5.44 4.96C4.56 5.84 4.12 7.10666 4.12 8.76V22C4.12 23.6533 4.56 24.9333 5.44 25.84C6.34667 26.7467 7.58667 27.2 9.16 27.2C10.7333 27.2 11.9467 26.7467 12.8 25.84C13.68 24.9333 14.12 23.6533 14.12 22V18.4H8.2V15.12H17.72V22C17.72 23.7067 17.3733 25.2 16.68 26.48C15.9867 27.7333 15 28.7067 13.72 29.4C12.44 30.0667 10.92 30.4 9.16 30.4ZM33.1444 30.4C31.3844 30.4 29.851 30.0667 28.5444 29.4C27.2644 28.7333 26.2644 27.7733 25.5444 26.52C24.851 25.24 24.5044 23.7333 24.5044 22V8.8C24.5044 7.04 24.851 5.53333 25.5444 4.28C26.2644 3.02667 27.2644 2.06666 28.5444 1.4C29.851 0.733333 31.3844 0.4 33.1444 0.4C34.9044 0.4 36.4244 0.746666 37.7044 1.44C38.9844 2.10667 39.971 3.06667 40.6644 4.32C41.3577 5.57333 41.7044 7.06667 41.7044 8.8H38.1044C38.1044 7.14667 37.6644 5.88 36.7844 5C35.931 4.09333 34.7177 3.64 33.1444 3.64C31.571 3.64 30.331 4.08 29.4244 4.96C28.5444 5.84 28.1044 7.10666 28.1044 8.76V22C28.1044 23.6533 28.5444 24.9333 29.4244 25.84C30.331 26.72 31.571 27.16 33.1444 27.16C34.7177 27.16 35.931 26.72 36.7844 25.84C37.6644 24.9333 38.1044 23.6533 38.1044 22H41.7044C41.7044 23.7067 41.3577 25.2 40.6644 26.48C39.971 27.7333 38.9844 28.7067 37.7044 29.4C36.4244 30.0667 34.9044 30.4 33.1444 30.4ZM56.9688 30.4C55.2088 30.4 53.6888 30.0667 52.4088 29.4C51.1554 28.7333 50.1821 27.7733 49.4888 26.52C48.8221 25.24 48.4888 23.7333 48.4888 22V8.8C48.4888 7.04 48.8221 5.53333 49.4888 4.28C50.1821 3.02667 51.1554 2.06666 52.4088 1.4C53.6888 0.733333 55.2088 0.4 56.9688 0.4C58.7288 0.4 60.2354 0.733333 61.4888 1.4C62.7688 2.06666 63.7421 3.02667 64.4088 4.28C65.1021 5.53333 65.4488 7.02667 65.4488 8.76V22C65.4488 23.7333 65.1021 25.24 64.4088 26.52C63.7421 27.7733 62.7688 28.7333 61.4888 29.4C60.2354 30.0667 58.7288 30.4 56.9688 30.4ZM56.9688 27.16C58.5421 27.16 59.7421 26.72 60.5688 25.84C61.4221 24.9333 61.8488 23.6533 61.8488 22V8.8C61.8488 7.14667 61.4221 5.88 60.5688 5C59.7421 4.09333 58.5421 3.64 56.9688 3.64C55.4221 3.64 54.2221 4.09333 53.3688 5C52.5154 5.88 52.0888 7.14667 52.0888 8.8V22C52.0888 23.6533 52.5154 24.9333 53.3688 25.84C54.2221 26.72 55.4221 27.16 56.9688 27.16ZM72.6331 30V0.799999H81.6731C83.4065 0.799999 84.9265 1.16 86.2331 1.88C87.5398 2.57333 88.5531 3.54666 89.2731 4.8C89.9931 6.05333 90.3531 7.52 90.3531 9.2C90.3531 11.1733 89.8331 12.8667 88.7931 14.28C87.7798 15.6933 86.3931 16.6667 84.6331 17.2L90.7531 30H86.5131L80.9131 17.6H76.2331V30H72.6331ZM76.2331 14.36H81.6731C83.1665 14.36 84.3665 13.8933 85.2731 12.96C86.1798 12 86.6331 10.7467 86.6331 9.2C86.6331 7.62666 86.1798 6.37333 85.2731 5.44C84.3665 4.50667 83.1665 4.04 81.6731 4.04H76.2331V14.36ZM96.6175 30V0.799999H106.018C107.831 0.799999 109.404 1.16 110.738 1.88C112.071 2.57333 113.098 3.56 113.818 4.84C114.564 6.12 114.938 7.64 114.938 9.4C114.938 11.1333 114.564 12.6533 113.818 13.96C113.098 15.24 112.071 16.24 110.738 16.96C109.404 17.6533 107.831 18 106.018 18H100.218V30H96.6175ZM100.218 14.76H106.018C107.591 14.76 108.844 14.28 109.778 13.32C110.738 12.3333 111.218 11.0267 111.218 9.4C111.218 7.74667 110.738 6.44 109.778 5.48C108.844 4.52 107.591 4.04 106.018 4.04H100.218V14.76ZM129.082 30.4C127.162 30.4 125.509 30.08 124.122 29.44C122.762 28.8 121.709 27.88 120.962 26.68C120.215 25.48 119.829 24.0533 119.802 22.4H123.402C123.402 23.8667 123.895 25.0267 124.882 25.88C125.895 26.7333 127.295 27.16 129.082 27.16C130.762 27.16 132.069 26.7467 133.002 25.92C133.962 25.0933 134.442 23.9467 134.442 22.48C134.442 21.3067 134.122 20.28 133.482 19.4C132.869 18.52 131.975 17.9067 130.802 17.56L126.842 16.32C124.842 15.7067 123.295 14.68 122.202 13.24C121.135 11.8 120.602 10.1067 120.602 8.16C120.602 6.58667 120.949 5.22667 121.642 4.08C122.362 2.90667 123.362 2 124.642 1.36C125.922 0.693332 127.429 0.359998 129.162 0.359998C131.722 0.359998 133.775 1.08 135.322 2.52C136.869 3.93333 137.655 5.82667 137.682 8.2H134.082C134.082 6.76 133.642 5.64 132.762 4.84C131.909 4.01333 130.695 3.6 129.122 3.6C127.575 3.6 126.362 3.97333 125.482 4.72C124.629 5.46667 124.202 6.50667 124.202 7.84C124.202 9.04 124.522 10.08 125.162 10.96C125.802 11.84 126.722 12.4667 127.922 12.84L131.922 14.12C133.869 14.7333 135.375 15.7733 136.442 17.24C137.509 18.7067 138.042 20.4267 138.042 22.4C138.042 24 137.669 25.4 136.922 26.6C136.175 27.8 135.122 28.7333 133.762 29.4C132.429 30.0667 130.869 30.4 129.082 30.4Z" fill="black"/>
</g>
<path d="M4.56 29.4L4.09805 30.2869L4.10553 30.2908L4.56 29.4ZM1.56 26.52L0.680708 26.9963L0.686665 27.0073L0.692895 27.0181L1.56 26.52ZM1.56 4.28L0.692894 3.78188L0.688874 3.78888L0.684966 3.79594L1.56 4.28ZM4.56 1.4L4.10551 0.509205L4.09807 0.513084L4.56 1.4ZM13.72 1.44L13.2437 2.31929L13.2509 2.32316L13.2581 2.32691L13.72 1.44ZM17.72 8.8V9.8H18.72V8.8H17.72ZM14.12 8.8H13.12V9.8H14.12V8.8ZM12.8 5L12.0718 5.68536L12.0822 5.6964L12.0929 5.70711L12.8 5ZM5.44 4.96L4.74353 4.24242L4.73817 4.24761L4.73289 4.25289L5.44 4.96ZM5.44 25.84L4.72242 26.5365L4.72762 26.5418L4.73289 26.5471L5.44 25.84ZM12.8 25.84L12.0824 25.1435L12.0771 25.149L12.0718 25.1546L12.8 25.84ZM14.12 18.4H15.12V17.4H14.12V18.4ZM8.2 18.4H7.2V19.4H8.2V18.4ZM8.2 15.12V14.12H7.2V15.12H8.2ZM17.72 15.12H18.72V14.12H17.72V15.12ZM16.68 26.48L17.5551 26.9641L17.5593 26.9563L16.68 26.48ZM13.72 29.4L14.1819 30.2869L14.1891 30.2832L14.1963 30.2793L13.72 29.4ZM9.16 29.4C7.5267 29.4 6.15495 29.0911 5.01447 28.5092L4.10553 30.2908C5.57838 31.0422 7.2733 31.4 9.16 31.4V29.4ZM5.02193 28.5131C3.91163 27.9348 3.05211 27.1098 2.42711 26.0219L0.692895 27.0181C1.50789 28.4368 2.64837 29.5319 4.09807 30.2869L5.02193 28.5131ZM2.43929 26.0437C1.839 24.9355 1.52 23.5987 1.52 22H-0.48C-0.48 23.868 -0.105666 25.5445 0.680708 26.9963L2.43929 26.0437ZM1.52 22V8.8H-0.48V22H1.52ZM1.52 8.8C1.52 7.17098 1.84042 5.83894 2.43503 4.76406L0.684966 3.79594C-0.107085 5.22772 -0.48 6.90902 -0.48 8.8H1.52ZM2.42711 4.77812C3.05211 3.69015 3.91163 2.8652 5.02193 2.28691L4.09807 0.513084C2.64837 1.26813 1.50789 2.36318 0.692894 3.78188L2.42711 4.77812ZM5.01447 2.29076C6.15495 1.70888 7.5267 1.4 9.16 1.4V-0.6C7.2733 -0.6 5.57838 -0.242217 4.10553 0.509237L5.01447 2.29076ZM9.16 1.4C10.7882 1.4 12.1376 1.72014 13.2437 2.31929L14.1963 0.560706C12.7424 -0.226809 11.0518 -0.6 9.16 -0.6V1.4ZM13.2581 2.32691C14.3652 2.90354 15.2075 3.72407 15.805 4.80406L17.555 3.83594C16.7658 2.40926 15.6348 1.30979 14.1819 0.553084L13.2581 2.32691ZM15.805 4.80406C16.4008 5.88106 16.72 7.2006 16.72 8.8H18.72C18.72 6.93273 18.3459 5.26561 17.555 3.83594L15.805 4.80406ZM17.72 7.8H14.12V9.8H17.72V7.8ZM15.12 8.8C15.12 6.97158 14.63 5.41577 13.5071 4.29289L12.0929 5.70711C12.73 6.34423 13.12 7.32176 13.12 8.8H15.12ZM13.5282 4.31464C12.4388 3.15712 10.9318 2.64 9.16 2.64V4.64C10.5349 4.64 11.4546 5.02955 12.0718 5.68536L13.5282 4.31464ZM9.16 2.64C7.39375 2.64 5.87998 3.13938 4.74353 4.24242L6.13648 5.67758C6.81335 5.02061 7.77958 4.64 9.16 4.64V2.64ZM4.73289 4.25289C3.61002 5.37576 3.12 6.93157 3.12 8.76H5.12C5.12 7.28176 5.50998 6.30423 6.14711 5.66711L4.73289 4.25289ZM3.12 8.76V22H5.12V8.76H3.12ZM3.12 22C3.12 23.8303 3.6107 25.3911 4.72242 26.5365L6.15758 25.1435C5.5093 24.4756 5.12 23.4763 5.12 22H3.12ZM4.73289 26.5471C5.86796 27.6822 7.38544 28.2 9.16 28.2V26.2C7.78789 26.2 6.82538 25.8112 6.14711 25.1329L4.73289 26.5471ZM9.16 28.2C10.9318 28.2 12.4388 27.6829 13.5282 26.5254L12.0718 25.1546C11.4546 25.8105 10.5349 26.2 9.16 26.2V28.2ZM13.5176 26.5365C14.6293 25.3911 15.12 23.8303 15.12 22H13.12C13.12 23.4763 12.7307 24.4756 12.0824 25.1435L13.5176 26.5365ZM15.12 22V18.4H13.12V22H15.12ZM14.12 17.4H8.2V19.4H14.12V17.4ZM9.2 18.4V15.12H7.2V18.4H9.2ZM8.2 16.12H17.72V14.12H8.2V16.12ZM16.72 15.12V22H18.72V15.12H16.72ZM16.72 22C16.72 23.5691 16.4022 24.8933 15.8007 26.0037L17.5593 26.9563C18.3445 25.5067 18.72 23.8442 18.72 22H16.72ZM15.805 25.9959C15.2057 27.0793 14.3587 27.9168 13.2437 28.5207L14.1963 30.2793C15.6413 29.4966 16.7677 28.3874 17.555 26.9641L15.805 25.9959ZM13.2581 28.5131C12.1487 29.0909 10.794 29.4 9.16 29.4V31.4C11.046 31.4 12.7313 31.0425 14.1819 30.2869L13.2581 28.5131ZM28.5444 29.4L28.0824 30.2869L28.0899 30.2908L28.5444 29.4ZM25.5444 26.52L24.6651 26.9963L24.671 27.0073L24.6773 27.0181L25.5444 26.52ZM25.5444 4.28L24.6773 3.78188L24.6732 3.78888L24.6693 3.79594L25.5444 4.28ZM28.5444 1.4L28.0899 0.509205L28.0824 0.513084L28.5444 1.4ZM37.7044 1.44L37.2281 2.31929L37.2352 2.32316L37.2424 2.32691L37.7044 1.44ZM41.7044 8.8V9.8H42.7044V8.8H41.7044ZM38.1044 8.8H37.1044V9.8H38.1044V8.8ZM36.7844 5L36.0562 5.68536L36.0666 5.6964L36.0773 5.70711L36.7844 5ZM29.4244 4.96L28.7279 4.24242L28.7225 4.24761L28.7173 4.25289L29.4244 4.96ZM29.4244 25.84L28.7068 26.5365L28.7172 26.5472L28.7279 26.5576L29.4244 25.84ZM36.7844 25.84L36.0668 25.1435L36.0665 25.1439L36.7844 25.84ZM38.1044 22V21H37.1044V22H38.1044ZM41.7044 22H42.7044V21H41.7044V22ZM40.6644 26.48L41.5394 26.9641L41.5437 26.9563L40.6644 26.48ZM37.7044 29.4L38.1663 30.2869L38.1735 30.2832L38.1807 30.2793L37.7044 29.4ZM33.1444 29.4C31.5111 29.4 30.1393 29.0911 28.9988 28.5092L28.0899 30.2908C29.5628 31.0422 31.2577 31.4 33.1444 31.4V29.4ZM29.0063 28.5131C27.896 27.9348 27.0365 27.1098 26.4115 26.0219L24.6773 27.0181C25.4923 28.4368 26.6327 29.5319 28.0824 30.2869L29.0063 28.5131ZM26.4237 26.0437C25.8234 24.9355 25.5044 23.5987 25.5044 22H23.5044C23.5044 23.868 23.8787 25.5445 24.6651 26.9963L26.4237 26.0437ZM25.5044 22V8.8H23.5044V22H25.5044ZM25.5044 8.8C25.5044 7.17098 25.8248 5.83894 26.4194 4.76406L24.6693 3.79594C23.8773 5.22772 23.5044 6.90902 23.5044 8.8H25.5044ZM26.4115 4.77812C27.0365 3.69015 27.896 2.8652 29.0063 2.28691L28.0824 0.513084C26.6327 1.26813 25.4923 2.36318 24.6773 3.78188L26.4115 4.77812ZM28.9988 2.29076C30.1393 1.70888 31.5111 1.4 33.1444 1.4V-0.6C31.2577 -0.6 29.5628 -0.242217 28.0899 0.509237L28.9988 2.29076ZM33.1444 1.4C34.7726 1.4 36.122 1.72014 37.2281 2.31929L38.1807 0.560706C36.7268 -0.226809 35.0362 -0.6 33.1444 -0.6V1.4ZM37.2424 2.32691C38.3496 2.90354 39.1919 3.72407 39.7893 4.80406L41.5394 3.83594C40.7502 2.40926 39.6192 1.30979 38.1663 0.553084L37.2424 2.32691ZM39.7893 4.80406C40.3851 5.88106 40.7044 7.2006 40.7044 8.8H42.7044C42.7044 6.93273 42.3303 5.26561 41.5394 3.83594L39.7893 4.80406ZM41.7044 7.8H38.1044V9.8H41.7044V7.8ZM39.1044 8.8C39.1044 6.97158 38.6144 5.41577 37.4915 4.29289L36.0773 5.70711C36.7144 6.34423 37.1044 7.32176 37.1044 8.8H39.1044ZM37.5126 4.31464C36.4231 3.15712 34.9162 2.64 33.1444 2.64V4.64C34.5192 4.64 35.4389 5.02955 36.0562 5.68536L37.5126 4.31464ZM33.1444 2.64C31.3781 2.64 29.8644 3.13938 28.7279 4.24242L30.1209 5.67758C30.7977 5.02061 31.764 4.64 33.1444 4.64V2.64ZM28.7173 4.25289C27.5944 5.37576 27.1044 6.93157 27.1044 8.76H29.1044C29.1044 7.28176 29.4944 6.30423 30.1315 5.66711L28.7173 4.25289ZM27.1044 8.76V22H29.1044V8.76H27.1044ZM27.1044 22C27.1044 23.8303 27.5951 25.3911 28.7068 26.5365L30.142 25.1435C29.4937 24.4756 29.1044 23.4763 29.1044 22H27.1044ZM28.7279 26.5576C29.8644 27.6606 31.3781 28.16 33.1444 28.16V26.16C31.764 26.16 30.7977 25.7794 30.1209 25.1224L28.7279 26.5576ZM33.1444 28.16C34.9076 28.16 36.411 27.6615 37.5023 26.5361L36.0665 25.1439C35.4511 25.7785 34.5279 26.16 33.1444 26.16V28.16ZM37.502 26.5365C38.6137 25.3911 39.1044 23.8303 39.1044 22H37.1044C37.1044 23.4763 36.7151 24.4756 36.0668 25.1435L37.502 26.5365ZM38.1044 23H41.7044V21H38.1044V23ZM40.7044 22C40.7044 23.5691 40.3865 24.8933 39.7851 26.0037L41.5437 26.9563C42.3289 25.5067 42.7044 23.8442 42.7044 22H40.7044ZM39.7893 25.9959C39.19 27.0793 38.3431 27.9168 37.2281 28.5207L38.1807 30.2793C39.6257 29.4966 40.752 28.3874 41.5394 26.9641L39.7893 25.9959ZM37.2424 28.5131C36.1331 29.0909 34.7784 29.4 33.1444 29.4V31.4C35.0303 31.4 36.7157 31.0425 38.1663 30.2869L37.2424 28.5131ZM52.4088 29.4L51.9391 30.2829L51.9468 30.2869L52.4088 29.4ZM49.4888 26.52L48.6018 26.9819L48.6076 26.9931L48.6137 27.0041L49.4888 26.52ZM49.4888 4.28L48.6137 3.79594L48.6097 3.80313L48.6059 3.81039L49.4888 4.28ZM52.4088 1.4L51.9468 0.513051L51.9391 0.517126L52.4088 1.4ZM61.4888 1.4L61.0191 2.2829L61.0268 2.28691L61.4888 1.4ZM64.4088 4.28L63.5259 4.74961L63.5297 4.75687L63.5337 4.76406L64.4088 4.28ZM64.4088 26.52L63.5294 26.0437L63.5259 26.0504L64.4088 26.52ZM61.4888 29.4L61.0268 28.5131L61.0191 28.5171L61.4888 29.4ZM60.5688 25.84L59.8406 25.1546L59.8399 25.1553L60.5688 25.84ZM60.5688 5L59.8298 5.67375L59.8402 5.68511L59.8509 5.69615L60.5688 5ZM53.3688 5L54.0867 5.69615L54.0918 5.69079L54.097 5.68536L53.3688 5ZM53.3688 25.84L52.6406 26.5254L52.6457 26.5308L52.6508 26.5361L53.3688 25.84ZM56.9688 29.4C55.3347 29.4 53.98 29.0909 52.8707 28.5131L51.9468 30.2869C53.3975 31.0425 55.0828 31.4 56.9688 31.4V29.4ZM52.8784 28.5171C51.7975 27.9422 50.9643 27.1215 50.3638 26.0359L48.6137 27.0041C49.3999 28.4252 50.5133 29.5244 51.9391 30.2829L52.8784 28.5171ZM50.3757 26.0581C49.7968 24.9467 49.4888 23.6046 49.4888 22H47.4888C47.4888 23.8621 47.8473 25.5333 48.6018 26.9819L50.3757 26.0581ZM49.4888 22V8.8H47.4888V22H49.4888ZM49.4888 8.8C49.4888 7.16512 49.7982 5.82771 50.3716 4.74961L48.6059 3.81039C47.846 5.23895 47.4888 6.91487 47.4888 8.8H49.4888ZM50.3638 4.76406C50.9643 3.67849 51.7975 2.85778 52.8784 2.28287L51.9391 0.517126C50.5133 1.27555 49.3999 2.37484 48.6137 3.79594L50.3638 4.76406ZM52.8707 2.28691C53.98 1.70913 55.3347 1.4 56.9688 1.4V-0.6C55.0828 -0.6 53.3975 -0.242464 51.9468 0.513084L52.8707 2.28691ZM56.9688 1.4C58.6036 1.4 59.941 1.70942 61.0191 2.28287L61.9584 0.517126C60.5298 -0.24275 58.8539 -0.6 56.9688 -0.6V1.4ZM61.0268 2.28691C62.1307 2.86187 62.9558 3.67786 63.5259 4.74961L65.2916 3.81039C64.5284 2.37547 63.4068 1.27146 61.9507 0.513084L61.0268 2.28691ZM63.5337 4.76406C64.1295 5.84106 64.4488 7.1606 64.4488 8.76H66.4488C66.4488 6.89273 66.0747 5.22561 65.2838 3.79594L63.5337 4.76406ZM64.4488 8.76V22H66.4488V8.76H64.4488ZM64.4488 22C64.4488 23.5987 64.1298 24.9355 63.5295 26.0437L65.288 26.9963C66.0744 25.5445 66.4488 23.868 66.4488 22H64.4488ZM63.5259 26.0504C62.9558 27.1221 62.1307 27.9381 61.0268 28.5131L61.9507 30.2869C63.4068 29.5285 64.5284 28.4245 65.2916 26.9896L63.5259 26.0504ZM61.0191 28.5171C59.941 29.0906 58.6036 29.4 56.9688 29.4V31.4C58.8539 31.4 60.5298 31.0427 61.9584 30.2829L61.0191 28.5171ZM56.9688 28.16C58.7301 28.16 60.2291 27.6621 61.2976 26.5247L59.8399 25.1553C59.2551 25.7779 58.354 26.16 56.9688 26.16V28.16ZM61.297 26.5254C62.3758 25.379 62.8488 23.8224 62.8488 22H60.8488C60.8488 23.4842 60.4683 24.4876 59.8406 25.1546L61.297 26.5254ZM62.8488 22V8.8H60.8488V22H62.8488ZM62.8488 8.8C62.8488 6.9796 62.3766 5.42786 61.2867 4.30385L59.8509 5.69615C60.4676 6.33214 60.8488 7.31373 60.8488 8.8H62.8488ZM61.3077 4.32625C60.2413 3.15666 58.7389 2.64 56.9688 2.64V4.64C58.3452 4.64 59.2428 5.03001 59.8298 5.67375L61.3077 4.32625ZM56.9688 2.64C55.2177 2.64 53.7268 3.16053 52.6406 4.31464L54.097 5.68536C54.7174 5.02614 55.6264 4.64 56.9688 4.64V2.64ZM52.6509 4.30385C51.5609 5.42786 51.0888 6.9796 51.0888 8.8H53.0888C53.0888 7.31373 53.4699 6.33214 54.0867 5.69615L52.6509 4.30385ZM51.0888 8.8V22H53.0888V8.8H51.0888ZM51.0888 22C51.0888 23.8224 51.5617 25.379 52.6406 26.5254L54.097 25.1546C53.4692 24.4876 53.0888 23.4842 53.0888 22H51.0888ZM52.6508 26.5361C53.739 27.6583 55.2265 28.16 56.9688 28.16V26.16C55.6177 26.16 54.7052 25.7817 54.0867 25.1439L52.6508 26.5361ZM72.6331 30H71.6331V31H72.6331V30ZM72.6331 0.799999V-0.200001H71.6331V0.799999H72.6331ZM86.2331 1.88L85.7505 2.75584L85.7574 2.75965L85.7644 2.76335L86.2331 1.88ZM89.2731 4.8L90.1402 4.30187L90.1402 4.30187L89.2731 4.8ZM88.7931 14.28L87.9876 13.6873L87.9804 13.6973L88.7931 14.28ZM84.6331 17.2L84.3431 16.243L83.2286 16.5807L83.7309 17.6314L84.6331 17.2ZM90.7531 30V31H92.3397L91.6553 29.5686L90.7531 30ZM86.5131 30L85.6018 30.4116L85.8675 31H86.5131V30ZM80.9131 17.6L81.8245 17.1884L81.5588 16.6H80.9131V17.6ZM76.2331 17.6V16.6H75.2331V17.6H76.2331ZM76.2331 30V31H77.2331V30H76.2331ZM76.2331 14.36H75.2331V15.36H76.2331V14.36ZM85.2731 12.96L85.9905 13.6569L86.0001 13.6466L85.2731 12.96ZM85.2731 5.44L84.5558 6.13678L84.5558 6.13679L85.2731 5.44ZM76.2331 4.04V3.04H75.2331V4.04H76.2331ZM73.6331 30V0.799999H71.6331V30H73.6331ZM72.6331 1.8H81.6731V-0.200001H72.6331V1.8ZM81.6731 1.8C83.2652 1.8 84.614 2.1296 85.7505 2.75584L86.7157 1.00416C85.2389 0.190398 83.5477 -0.200001 81.6731 -0.200001V1.8ZM85.7644 2.76335C86.9088 3.37055 87.7822 4.21215 88.406 5.29812L90.1402 4.30187C89.3241 2.88118 88.1708 1.77612 86.7018 0.99665L85.7644 2.76335ZM88.406 5.29812C89.0257 6.37683 89.3531 7.66614 89.3531 9.2H91.3531C91.3531 7.37386 90.9606 5.72984 90.1402 4.30187L88.406 5.29812ZM89.3531 9.2C89.3531 10.9879 88.8858 12.4669 87.9877 13.6873L89.5986 14.8727C90.7805 13.2665 91.3531 11.3588 91.3531 9.2H89.3531ZM87.9804 13.6973C87.103 14.921 85.9054 15.7696 84.3431 16.243L84.9231 18.157C86.8809 17.5638 88.4565 16.4656 89.6058 14.8627L87.9804 13.6973ZM83.7309 17.6314L89.8509 30.4314L91.6553 29.5686L85.5353 16.7686L83.7309 17.6314ZM90.7531 29H86.5131V31H90.7531V29ZM87.4245 29.5884L81.8245 17.1884L80.0018 18.0116L85.6018 30.4116L87.4245 29.5884ZM80.9131 16.6H76.2331V18.6H80.9131V16.6ZM75.2331 17.6V30H77.2331V17.6H75.2331ZM76.2331 29H72.6331V31H76.2331V29ZM76.2331 15.36H81.6731V13.36H76.2331V15.36ZM81.6731 15.36C83.3932 15.36 84.8671 14.8131 85.9904 13.6568L84.5558 12.2632C83.8658 12.9736 82.9397 13.36 81.6731 13.36V15.36ZM86.0001 13.6466C87.1118 12.4696 87.6331 10.9552 87.6331 9.2H85.6331C85.6331 10.5381 85.2478 11.5304 84.5461 12.2734L86.0001 13.6466ZM87.6331 9.2C87.6331 7.42431 87.115 5.90092 85.9904 4.74321L84.5558 6.13679C85.2445 6.84574 85.6331 7.82902 85.6331 9.2H87.6331ZM85.9904 4.74321C84.8671 3.58691 83.3932 3.04 81.6731 3.04V5.04C82.9397 5.04 83.8658 5.42642 84.5558 6.13678L85.9904 4.74321ZM81.6731 3.04H76.2331V5.04H81.6731V3.04ZM75.2331 4.04V14.36H77.2331V4.04H75.2331ZM96.6175 30H95.6175V31H96.6175V30ZM96.6175 0.799999V-0.200001H95.6175V0.799999H96.6175ZM110.738 1.88L110.262 2.75991L110.269 2.76361L110.276 2.76722L110.738 1.88ZM113.818 4.84L112.946 5.33026L112.95 5.3371L112.954 5.34387L113.818 4.84ZM113.818 13.96L112.949 13.4638L112.946 13.4697L113.818 13.96ZM110.738 16.96L111.199 17.8472L111.206 17.8436L111.213 17.8399L110.738 16.96ZM100.218 18V17H99.2175V18H100.218ZM100.218 30V31H101.218V30H100.218ZM100.218 14.76H99.2175V15.76H100.218V14.76ZM109.778 13.32L109.061 12.6226L109.061 12.6229L109.778 13.32ZM109.778 5.48L109.06 6.17715L109.07 6.18711L109.778 5.48ZM100.218 4.04V3.04H99.2175V4.04H100.218ZM97.6175 30V0.799999H95.6175V30H97.6175ZM96.6175 1.8H106.018V-0.200001H96.6175V1.8ZM106.018 1.8C107.697 1.8 109.101 2.13285 110.262 2.75991L111.213 1.00009C109.707 0.187149 107.964 -0.200001 106.018 -0.200001V1.8ZM110.276 2.76722C111.441 3.37311 112.324 4.22376 112.946 5.33026L114.689 4.34974C113.871 2.89624 112.7 1.77355 111.199 0.992783L110.276 2.76722ZM112.954 5.34387C113.596 6.44446 113.938 7.78365 113.938 9.4H115.938C115.938 7.49635 115.533 5.79554 114.681 4.33613L112.954 5.34387ZM113.938 9.4C113.938 10.986 113.597 12.3299 112.949 13.4639L114.686 14.4561C115.531 12.9767 115.938 11.2806 115.938 9.4H113.938ZM112.946 13.4697C112.322 14.5796 111.435 15.4469 110.262 16.0801L111.213 17.8399C112.707 17.0331 113.873 15.9004 114.689 14.4503L112.946 13.4697ZM110.276 16.0728C109.112 16.6782 107.703 17 106.018 17V19C107.959 19 109.696 18.6285 111.199 17.8472L110.276 16.0728ZM106.018 17H100.218V19H106.018V17ZM99.2175 18V30H101.218V18H99.2175ZM100.218 29H96.6175V31H100.218V29ZM100.218 15.76H106.018V13.76H100.218V15.76ZM106.018 15.76C107.81 15.76 109.34 15.2046 110.494 14.0171L109.061 12.6229C108.348 13.3554 107.372 13.76 106.018 13.76V15.76ZM110.494 14.0174C111.668 12.8106 112.218 11.2365 112.218 9.4H110.218C110.218 10.8169 109.807 11.8561 109.061 12.6226L110.494 14.0174ZM112.218 9.4C112.218 7.54298 111.672 5.95987 110.485 4.77289L109.07 6.18711C109.803 6.92013 110.218 7.95035 110.218 9.4H112.218ZM110.494 4.78292C109.34 3.59541 107.81 3.04 106.018 3.04V5.04C107.372 5.04 108.348 5.44459 109.061 6.17708L110.494 4.78292ZM106.018 3.04H100.218V5.04H106.018V3.04ZM99.2175 4.04V14.76H101.218V4.04H99.2175ZM124.122 29.44L123.696 30.3448L123.703 30.348L124.122 29.44ZM120.962 26.68L120.113 27.2083L120.113 27.2083L120.962 26.68ZM119.802 22.4V21.4H118.786L118.802 22.4161L119.802 22.4ZM123.402 22.4H124.402V21.4H123.402V22.4ZM124.882 25.88L124.228 26.6364L124.238 26.6449L124.882 25.88ZM133.002 25.92L132.349 25.1622L132.339 25.1714L133.002 25.92ZM133.482 19.4L132.661 19.9718L132.667 19.98L132.673 19.9882L133.482 19.4ZM130.802 17.56L130.503 18.5143L130.511 18.5167L130.519 18.519L130.802 17.56ZM126.842 16.32L127.141 15.3657L127.135 15.3639L126.842 16.32ZM122.202 13.24L121.398 13.8353L121.405 13.8447L122.202 13.24ZM121.642 4.08L120.79 3.55697L120.786 3.56258L121.642 4.08ZM124.642 1.36L125.089 2.25443L125.096 2.25073L125.104 2.24691L124.642 1.36ZM135.322 2.52L134.64 3.25192L134.647 3.25821L135.322 2.52ZM137.682 8.2V9.2H138.693L138.682 8.18876L137.682 8.2ZM134.082 8.2H133.082V9.2H134.082V8.2ZM132.762 4.84L132.066 5.55824L132.077 5.56927L132.089 5.57994L132.762 4.84ZM125.482 4.72L124.835 3.95749L124.829 3.96241L124.823 3.96742L125.482 4.72ZM125.162 10.96L125.971 10.3718L125.971 10.3718L125.162 10.96ZM127.922 12.84L128.227 11.8875L128.219 11.8851L127.922 12.84ZM131.922 14.12L131.617 15.0724L131.621 15.0738L131.922 14.12ZM136.442 17.24L137.251 16.6518L137.251 16.6518L136.442 17.24ZM136.922 26.6L136.073 26.0717L136.073 26.0717L136.922 26.6ZM133.762 29.4L133.322 28.5021L133.315 28.5056L133.762 29.4ZM129.082 29.4C127.27 29.4 125.767 29.0979 124.541 28.532L123.703 30.348C125.25 31.0621 127.053 31.4 129.082 31.4V29.4ZM124.548 28.5352C123.35 27.9718 122.449 27.1775 121.811 26.1517L120.113 27.2083C120.968 28.5825 122.173 29.6282 123.696 30.3448L124.548 28.5352ZM121.811 26.1517C121.175 25.1301 120.826 23.8872 120.802 22.3839L118.802 22.4161C118.831 24.2195 119.255 25.8299 120.113 27.2083L121.811 26.1517ZM119.802 23.4H123.402V21.4H119.802V23.4ZM122.402 22.4C122.402 24.1167 122.993 25.5682 124.228 26.6364L125.536 25.1236C124.798 24.4852 124.402 23.6167 124.402 22.4H122.402ZM124.238 26.6449C125.486 27.6959 127.142 28.16 129.082 28.16V26.16C127.448 26.16 126.305 25.7708 125.526 25.1151L124.238 26.6449ZM129.082 28.16C130.92 28.16 132.493 27.7063 133.665 26.6686L132.339 25.1714C131.644 25.787 130.603 26.16 129.082 26.16V28.16ZM133.654 26.6778C134.871 25.6302 135.442 24.1869 135.442 22.48H133.442C133.442 23.7065 133.053 24.5564 132.349 25.1622L133.654 26.6778ZM135.442 22.48C135.442 21.1128 135.065 19.8764 134.291 18.8118L132.673 19.9882C133.179 20.6836 133.442 21.5005 133.442 22.48H135.442ZM134.302 18.8282C133.541 17.7361 132.444 17.0025 131.085 16.601L130.519 18.519C131.506 18.8109 132.196 19.3039 132.661 19.9718L134.302 18.8282ZM131.101 16.6057L127.141 15.3657L126.543 17.2743L130.503 18.5143L131.101 16.6057ZM127.135 15.3639C125.303 14.8021 123.946 13.8831 122.998 12.6353L121.405 13.8447C122.645 15.4769 124.381 16.6112 126.549 17.2761L127.135 15.3639ZM123.005 12.6448C122.078 11.3921 121.602 9.91189 121.602 8.16H119.602C119.602 10.3014 120.193 12.2079 121.398 13.8352L123.005 12.6448ZM121.602 8.16C121.602 6.73693 121.914 5.56261 122.498 4.59742L120.786 3.56258C119.983 4.89072 119.602 6.43641 119.602 8.16H121.602ZM122.494 4.60302C123.113 3.59538 123.969 2.81436 125.089 2.25443L124.195 0.465572C122.755 1.18564 121.611 2.21795 120.79 3.55698L122.494 4.60302ZM125.104 2.24691C126.215 1.66807 127.557 1.36 129.162 1.36V-0.640002C127.3 -0.640002 125.629 -0.281404 124.18 0.473085L125.104 2.24691ZM129.162 1.36C131.525 1.36 133.316 2.01915 134.64 3.25189L136.003 1.7881C134.234 0.14085 131.918 -0.640002 129.162 -0.640002V1.36ZM134.647 3.25821C135.961 4.45905 136.658 6.07432 136.682 8.21124L138.682 8.18876C138.652 5.57902 137.776 3.40762 135.996 1.78179L134.647 3.25821ZM137.682 7.2H134.082V9.2H137.682V7.2ZM135.082 8.2C135.082 6.54263 134.566 5.12894 133.435 4.10006L132.089 5.57994C132.717 6.15105 133.082 6.97737 133.082 8.2H135.082ZM133.458 4.12176C132.364 3.06186 130.868 2.6 129.122 2.6V4.6C130.522 4.6 131.454 4.96481 132.066 5.55824L133.458 4.12176ZM129.122 2.6C127.419 2.6 125.949 3.01209 124.835 3.95749L126.129 5.48251C126.775 4.93457 127.731 4.6 129.122 4.6V2.6ZM124.823 3.96742C123.714 4.93789 123.202 6.27415 123.202 7.84H125.202C125.202 6.73918 125.543 5.99544 126.14 5.47258L124.823 3.96742ZM123.202 7.84C123.202 9.22851 123.576 10.4797 124.353 11.5482L125.971 10.3718C125.468 9.68033 125.202 8.85149 125.202 7.84H123.202ZM124.353 11.5482C125.139 12.6284 126.252 13.3679 127.625 13.7949L128.219 11.8851C127.191 11.5655 126.465 11.0516 125.971 10.3718L124.353 11.5482ZM127.617 13.7924L131.617 15.0724L132.227 13.1676L128.227 11.8876L127.617 13.7924ZM131.621 15.0738C133.391 15.6312 134.708 16.5561 135.633 17.8282L137.251 16.6518C136.042 14.9906 134.346 13.8354 132.222 13.1662L131.621 15.0738ZM135.633 17.8282C136.564 19.1087 137.042 20.6184 137.042 22.4H139.042C139.042 20.235 138.453 18.3046 137.251 16.6518L135.633 17.8282ZM137.042 22.4C137.042 23.8386 136.708 25.0504 136.073 26.0717L137.771 27.1283C138.629 25.7496 139.042 24.1614 139.042 22.4H137.042ZM136.073 26.0717C135.432 27.1011 134.526 27.9117 133.322 28.5021L134.202 30.2979C135.718 29.5549 136.918 28.4989 137.771 27.1283L136.073 26.0717ZM133.315 28.5056C132.145 29.0903 130.744 29.4 129.082 29.4V31.4C130.993 31.4 132.712 31.043 134.209 30.2944L133.315 28.5056Z" fill="black" mask="url(#path-1-inside-1_122_6)"/>
</g>
<defs>
<filter id="filter0_i_122_6" x="0.52002" y="0.359985" width="137.522" height="34.04" filterUnits="userSpaceOnUse" color-interpolation-filters="sRGB">
<feFlood flood-opacity="0" result="BackgroundImageFix"/>
<feBlend mode="normal" in="SourceGraphic" in2="BackgroundImageFix" result="shape"/>
<feColorMatrix in="SourceAlpha" type="matrix" values="0 0 0 0 0 0 0 0 0 0 0 0 0 0 0 0 0 0 127 0" result="hardAlpha"/>
<feOffset dy="4"/>
<feGaussianBlur stdDeviation="2"/>
<feComposite in2="hardAlpha" operator="arithmetic" k2="-1" k3="1"/>
<feColorMatrix type="matrix" values="0 0 0 0 0 0 0 0 0 0 0 0 0 0 0 0 0 0 0.25 0"/>
<feBlend mode="normal" in2="shape" result="effect1_innerShadow_122_6"/>
</filter>
</defs>
</svg>
